<?xml version="1.0" encoding="UTF-8"?>
<svg id="Layer_2" data-name="Layer 2" xmlns="http://www.w3.org/2000/svg" viewBox="0 0 512 512">
  <defs>
    <style>
      .cls-1 {
        fill: #fff;
      }

      .cls-2 {
        fill: #cc3628;
      }
    </style>
  </defs>
  <g id="Layer_1-2" data-name="Layer 1">
    <g>
      <rect class="cls-1" y="0" width="512" height="512" rx="91" ry="91"/>
      <g>
        <path class="cls-2" d="M452.99,328.14c-4.39,0-7.97-3.57-7.97-7.97s3.57-7.97,7.97-7.97,7.97,3.57,7.97,7.97-3.57,7.97-7.97,7.97ZM452.99,312.6c-4.18,0-7.58,3.4-7.58,7.58s3.4,7.58,7.58,7.58,7.58-3.4,7.58-7.58-3.4-7.58-7.58-7.58Z"/>
        <path class="cls-2" d="M453.19,322.43h-.38v-4.16l-1.75,3.92c-.04.1-.14.16-.25.16-.1,0-.2-.06-.25-.16l-1.68-3.89v4.14h-.38v-4.81c0-.12.08-.22.19-.24.12-.02.23.04.27.14l1.85,4.27,1.91-4.28c.05-.11.16-.16.27-.14.11.02.19.12.19.24v4.82Z"/>
        <path class="cls-2" d="M455.05,322.43h-.38v-5.23l.16-.03c.06,0,1.6-.24,2.35.4.27.23.41.55.41.93,0,1.71-1.19,1.76-1.2,1.76h-1.34v2.16ZM455.05,319.89h1.33s.82-.05.82-1.38c0-.27-.09-.48-.28-.64-.49-.42-1.49-.37-1.88-.33v2.35Z"/>
        <rect class="cls-2" x="456.93" y="320" width=".38" height="2.54" transform="translate(-89.85 207.26) rotate(-23.33)"/>
        <path class="cls-2" d="M83.17,185.66s.93,13.82,9.06,12.59,11.32-7.79,11.32-7.79c0,0,1.81-3.87-.49-12.39s-6.32-11.12-14.65-13.13c-8.33-2.01-17.15,3.04-17.15,3.04,0,0-6.32,2.99-10.63,11.27s-7.05,17.29-8.97,28.37c-1.91,11.07,1.13,24.5,1.13,24.5,0,0,3.09,16.12,18.08,17.93,0,0,13.08,1.18,26.11-4.02,13.03-5.19,11.12-21.95,11.12-21.95,0,0,1.91-12.84-8.67-12.3s-11.02,5.34-11.02,5.34c0,0-1.03,5.14-1.62,6.37s-1.86,4.36-5.39.78c-3.53-3.58-4.56-8.67-4.56-8.67,0,0-.73-7.94-.29-13.13s2.35-19.55,5.14-19.79c0,0,1.76-.05,1.47,2.99Z"/>
        <path class="cls-2" d="M203.22,334.2c-19.01-3.36-33.12-18.75-35.14-37.78-2.42-22.73,10.56-44.36,30.53-54.99,5.39-2.87,10.84-4.31,16.81-5.24,2.38-.37,4.51-.94,7.04-.95,12.74-.03,25.07,4.89,33.4,14.61,15.73,18.34,13.27,44.26-1,62.83-11.75,15.29-31.8,25.02-51.64,21.52ZM221.04,286.7c.25-4.93-.4-9.67-1.86-14.38-.68-2.18-4.33-3.9-5.56-3.49-2.58.86-3.6,8.86-3.94,11.39-.43,3.25.15,6.21,1.25,9.24.69,1.91,1.78,7.14,5.78,5.98,2.6-.75,4.22-6.73,4.32-8.74Z"/>
        <path class="cls-2" d="M398.8,287.85c-3.42-.67-6.46.19-8.29,3.31-1.48,2.53-1.14,6.5,1.56,8.72,4.61,3.8,11.05,4.08,16.59,1.9,2.28-.9,4.33-1.75,6.82-1.78,3.14-.03,6.48-.36,9.3,1.35,4.35,2.63,4.33,18.35-2.03,26.79-2.94,3.9-7.91,5.21-12.37,5.77l-9.86,1.23c-15.39,1.92-36.3-7.6-40.29-25.11-2.36-10.37-2.48-24.82-1.64-35.54l2.46-31.01c.45-5.66,6.29-9.84,11.23-11.29,4.39-1.29,8.43-1.31,12.89-1.57,7.78-.45,18.1-.33,23.85,5.85,3.53,3.8,4.41,9.3,3.08,14.16-.89,3.25-3.23,5.16-6.15,6.43-7.52,3.27-9.07-1.56-14.63-.94-1.97.22-3.28,1.94-3.82,3.25-.85,2.06-.3,3.98,1.13,5.6,3.64,4.11,9.48,3,14.1,1.31,4.35-1.59,10.93-3.55,15.11-.74,5.27,3.55,6.51,13.9,1.86,18.97-2.41,2.63-5.43,4.4-9.26,4.37s-7.86-.28-11.63-1.02Z"/>
        <path class="cls-2" d="M352.94,310.04c4.98,8.28,5.38,18.24,1.95,27.05-2.93,7.52-8.5,8.32-14.8,10.61-7.51,2.72-15.27,3.09-23.25,2.65-8.91-.48-22.51-.61-29.99-5.08-6.08-3.64-9.48-9.47-9.87-16.53-.36-6.47-.28-12.72.31-19.35l4.1-46.01c.48-5.43,1.86-10.27,3.49-15.38,1.83-1.34,3.92-2.25,6.25-2.07,4.25.34,8.4.88,12.48,1.8,5.25,1.19,8,7.14,9.11,11.89,1.3,5.55,2.37,10.93,2.48,16.64l.26,13.98c.12,6.08-.01,11.9.41,17.95.13,1.88.88,4.07,2.21,5.35,2.54,2.46,6.8,2.4,9.39,0,4.84-4.51,10.7-8.11,17.5-8.51,2.94-.17,6.33,2.28,7.97,5.02Z"/>
        <path class="cls-2" d="M131.36,233.09c-5.14,1.66-10.49,1.18-15.29-.24-3.32-.99-4.8-4.23-4.26-7.5.77-4.67.94-9.03.92-13.8-.03-9.07-.34-17.81-1.7-26.79-.49-3.25-.01-6.22.54-9.35.34-1.91.93-3.39,2.5-4.69,2.79-2.31,6.39-3.28,10.12-3.05,6.65.41,7.8.67,11.75,4.55,1.64,1.61,2.66,4.01,2.14,6.37l-2.69,12.27c-.34,1.54.29,3.4,1.27,4.51.91,1.03,2.61,1.42,4.15,1.37,2.06-.06,3.42-1.22,4.13-3.06,1.16-3.02.27-5.86-.62-8.85-.89-3.02-1.59-6.2-2.07-9.28-.65-4.11,1.7-7.43,5.65-8.23,3.19-.65,6.41-.41,9.64.09,2.98.46,4.92,2.22,5.85,5.15,1.36,4.26,1.7,8.71,1.63,13.36-.15,10.5-.12,20.71.97,31.13.39,3.71,1.83,13.08-2.42,14.36-3.66,1.1-7.2,2-10.95,2.63-5.02.84-9.16-2.92-9.2-8-.05-7.32,3.38-12.07,1.34-17.1-.46-1.14-2.07-1.82-3.34-1.54-2.3.51-4.72,2.22-5.09,4.67-.52,3.53,4.49,10.57,2.25,15.24-1.21,2.52-4.38,4.91-7.22,5.83Z"/>
        <path class="cls-2" d="M272.86,218.07c-7.82,1.42-15.3-.61-21.06-5.54s-8.81-11.72-8.65-19.46c.3-14.56,10.6-27.19,24.56-30.69,10.61-2.66,21.51.56,27.67,9.69,4.45,6.6,5.47,14.65,3.3,22.38-3.38,12.03-13.26,21.32-25.82,23.6ZM273.63,191.18c.21-2.72-.02-11.53-4.57-10.5-1.66,2.93-2.47,6.9-1.64,10.18.53,2.12,1.21,4.7,2.99,5.07,1.95.4,3.12-3.43,3.22-4.75Z"/>
        <path class="cls-2" d="M332.5,228.67c-5.4.79-10.16.25-15.21-.96-5.68-1.36-10.89-3.94-14.73-8.43-3.5-4.09-1.62-11.68,1.53-15.46,1.54-1.85,4.58-2.16,6.7-1.28,3.88,1.59,6.52,4.58,8.51,8.14,1.77,3.16,5.01,5.86,8.56,4.09,1.27-.63,2.2-2.25,2.38-3.89.76-7.15-8.86-6.98-15.1-11.07-4.61-3.01-7.62-8.5-8.2-13.97-.51-4.8.88-9.77,3.38-13.64,3.47-5.37,9.21-7.57,15.34-7.6,7.07-.04,13.57,1.18,19.78,4.52,2.9,1.56,4.32,4.73,3.46,8.05-1.04,4.05-3.07,13.18-7.22,14.27-2.89.76-5.46-1.21-6.97-3.55-2.51-3.9-6.93-6.39-11.61-4.74-1.57.55-1.15,3.54-.12,4.58,1.77,1.78,3.68,3.11,6,3.94l13.57,4.85c5.81,2.07,9.36,7.69,8.54,13.97-1.25,9.57-8.93,16.78-18.58,18.2Z"/>
        <path class="cls-2" d="M225.42,204.78c2.37-1.91.93-7.63,6-8.83,2.14-.5,4.6-.57,6.79.19,3.74,1.29,2.91,11.39,1.63,15.18-2.69,7.94-11.55,9-19.01,9.49-6.41,1.44-12.81-1.92-15.27-8.19-4.92-12.59-2.06-27.65,4.28-39.3,3.91-7.18,12.01-10.34,19.83-8.28,4.07,1.07,6.92,3.98,7.82,8.17.58,2.7,1.4,5.74.34,8.43s-4.02,4.53-6.79,5.23c-2.38.6-4.99-.94-5.66-3.26-.84-2.9-1.03-6.23-2.04-6.92-2.6,2.48-2.97,11.19-3.3,15.15s.16,11.55,5.38,12.92Z"/>
        <path class="cls-2" d="M191.28,222.19c-6.09,2.02-12.9,1.88-18.38-1.4-2.52-1.51-3.12-5.31-2.69-8.1,1.66-10.65,6.78-18.42,6.57-29,2.65-3.34,6.73-4.25,10.74-3.35,3.53.79,6.51,3.11,7.26,6.86l2.03,10.2c1.52,7.64,4.58,21.46-5.52,24.8Z"/>
        <path class="cls-2" d="M394.83,221.22c-6.02-.76-11.32-6.15-11.02-12.22.18-3.56,3.29-6.54,5.9-8.61,5.4-4.27,10.96-7.63,16.69-11.35,3.92-2.55,7.2-5.45,10.68-8.54,1.83-1.62,5.12-.91,6.96.33s3.28,3.96,2.95,6.56c-.4,3.13-2.16,5.75-4.06,8.21l-9.02,11.66c-3.33,4.3-6.99,8.18-11.3,11.41-2.15,1.61-4.66,2.94-7.76,2.55Z"/>
        <path class="cls-2" d="M197.12,170.94c-.23,8.71-23.49,9.84-22.95,2.98.46-5.78,5.4-9.62,10.81-10.23,3.03-.34,5.55-.04,8.17,1.55,1.96,1.19,4.04,3.07,3.97,5.7Z"/>
      </g>
    </g>
  </g>
</svg>