<?xml version="1.0" encoding="UTF-8"?>
<svg id="Layer_2" data-name="Layer 2" xmlns="http://www.w3.org/2000/svg" viewBox="0 0 512 512">
  <defs>
    <style>
      .cls-1 {
        fill: #fff;
      }

      .cls-2 {
        fill: #269fda;
      }

      .cls-2, .cls-3 {
        fill-rule: evenodd;
      }

      .cls-3, .cls-4 {
        fill: #1c3664;
      }
    </style>
  </defs>
  <g id="Layer_1-2" data-name="Layer 1">
    <g>
      <rect class="cls-1" y="0" width="512" height="512" rx="91" ry="91"/>
      <g>
        <g id="Layer_2-2" data-name="Layer 2">
          <path class="cls-4" d="M154.78,291.8c0,1.12-.07,1.96-.21,2.56-.14.6-.32,1.01-.56,1.26-.22.25-.56.45-1,.65-.44.18-.96.35-1.56.49-.6.14-1.25.25-1.95.32-.69.08-1.4.12-2.1.12-1.91,0-3.56-.25-4.95-.73-1.4-.48-2.54-1.22-3.47-2.22-.91-1.01-1.58-2.27-2.01-3.79-.43-1.52-.65-3.32-.65-5.4v-17.38h-4.06c-.48,0-.86-.3-1.1-.9-.26-.6-.39-1.58-.39-2.99,0-.73.04-1.35.1-1.86.07-.51.16-.91.29-1.21.12-.29.28-.49.47-.62.19-.13.42-.19.68-.19h4.02v-7.57c0-.25.07-.48.21-.67.14-.21.4-.38.77-.52.36-.14.86-.23,1.48-.3.62-.07,1.39-.1,2.3-.1s1.73.04,2.35.1c.61.06,1.1.16,1.45.3.36.14.61.31.77.52.16.19.22.43.22.67v7.57h7.39c.25,0,.47.07.66.19.19.13.35.34.48.62.12.3.22.7.29,1.21.07.51.09,1.13.09,1.86,0,1.4-.13,2.39-.38,2.99-.26.6-.62.9-1.1.9h-7.43v15.94c0,1.84.3,3.23.88,4.16.58.93,1.62,1.39,3.12,1.39.51,0,.96-.04,1.38-.13.4-.09.77-.18,1.08-.3s.58-.22.81-.31c.21-.09.4-.13.58-.13.16,0,.3.04.44.13.13.09.25.27.32.53.07.27.14.64.21,1.09.06.45.09,1.04.09,1.75h0ZM168.64,295.14c0,.26-.06.48-.22.68-.16.18-.41.35-.78.47-.38.13-.86.22-1.47.29-.61.07-1.38.1-2.32.1s-1.71-.04-2.31-.1c-.61-.06-1.1-.16-1.47-.29-.38-.12-.64-.29-.78-.47-.16-.19-.23-.42-.23-.68v-33.85c0-.26.08-.48.23-.66.14-.19.4-.36.78-.49.36-.14.86-.25,1.47-.32.6-.08,1.38-.12,2.31-.12s1.71.04,2.32.12c.61.08,1.09.18,1.47.32.36.13.62.3.78.49.16.18.22.4.22.66v33.85h0ZM169.37,249.72c0,1.94-.39,3.26-1.18,4-.78.74-2.24,1.1-4.37,1.1s-3.6-.35-4.35-1.06c-.75-.72-1.13-1.99-1.13-3.84s.39-3.26,1.17-4.01c.77-.75,2.23-1.13,4.39-1.13s3.58.36,4.34,1.09c.77.73,1.14,2.01,1.14,3.86h0ZM201.24,289.74c0,.66-.03,1.22-.07,1.66-.04.44-.09.82-.14,1.12-.06.31-.14.56-.23.74-.09.19-.28.44-.58.73-.31.29-.83.65-1.57,1.07-.73.42-1.57.79-2.51,1.12-.93.34-1.96.6-3.06.81-1.1.21-2.23.3-3.4.3-2.61,0-4.92-.4-6.95-1.21-2.01-.82-3.7-2.01-5.08-3.6-1.36-1.58-2.4-3.52-3.09-5.8-.7-2.28-1.05-4.89-1.05-7.83,0-3.4.43-6.34,1.27-8.82.86-2.47,2.04-4.52,3.56-6.14,1.52-1.62,3.32-2.83,5.4-3.61,2.08-.79,4.36-1.18,6.84-1.18,1.02,0,2.01.09,2.99.27.99.17,1.9.42,2.74.71.86.31,1.61.65,2.28,1.02.68.39,1.14.72,1.43.99.27.29.48.52.58.71.12.18.21.43.27.74.06.3.12.68.16,1.12s.05.99.05,1.62c0,1.47-.13,2.51-.38,3.1-.26.58-.58.88-.99.88-.44,0-.9-.17-1.38-.53-.48-.35-1.05-.74-1.71-1.17-.66-.44-1.44-.83-2.35-1.18-.92-.36-2.01-.53-3.27-.53-2.49,0-4.39.95-5.71,2.87-1.31,1.91-1.97,4.73-1.97,8.43,0,1.82.16,3.43.49,4.83.32,1.39.82,2.56,1.47,3.49.64.95,1.45,1.65,2.43,2.12.97.47,2.12.7,3.4.7s2.45-.2,3.41-.58c.95-.39,1.78-.83,2.48-1.31.71-.48,1.31-.92,1.79-1.31.48-.4.9-.6,1.22-.6.23,0,.42.07.57.19.16.13.27.36.36.7.09.34.16.78.21,1.31.05.53.08,1.22.08,2.05h0ZM237.06,295.18c0,.26-.08.48-.21.68-.14.18-.4.34-.77.45s-.87.2-1.51.26c-.62.07-1.45.1-2.47.1s-1.88-.03-2.53-.08c-.65-.05-1.18-.14-1.6-.25-.42-.12-.74-.27-.97-.48-.22-.21-.43-.47-.6-.79l-11.31-17.88v17.94c0,.26-.06.48-.22.68-.16.18-.41.35-.78.47-.38.13-.86.22-1.47.29-.61.07-1.38.1-2.32.1s-1.71-.04-2.31-.1c-.61-.06-1.1-.16-1.47-.29-.38-.12-.64-.29-.78-.47-.16-.19-.23-.42-.23-.68v-50.01c0-.26.08-.48.23-.69.14-.21.4-.38.78-.51.36-.14.86-.25,1.47-.32.6-.08,1.38-.12,2.31-.12s1.71.04,2.32.12c.61.08,1.09.18,1.47.32.36.13.62.3.78.51.16.21.22.43.22.69v29.78l10.05-13.5c.2-.31.43-.57.69-.81.25-.22.58-.4,1-.53s.95-.22,1.56-.29c.62-.06,1.42-.09,2.38-.09s1.74.03,2.39.09c.64.07,1.16.16,1.56.29.39.13.66.29.82.48.14.18.22.43.22.7,0,.38-.09.79-.29,1.22-.18.43-.47.88-.86,1.36l-9.92,11.26,11.48,17.77c.31.51.53.93.68,1.31.13.36.21.7.21,1h0ZM269.48,277.19v-1.53c0-2.38-.3-4.58-.91-6.61-.61-2.04-1.56-3.79-2.86-5.27-1.28-1.48-2.95-2.65-4.96-3.48-2.01-.84-4.44-1.26-7.28-1.26-2.69,0-5.1.44-7.24,1.34-2.14.88-3.96,2.17-5.47,3.86-1.49,1.69-2.64,3.74-3.41,6.17-.79,2.42-1.18,5.14-1.18,8.15,0,3.17.38,5.93,1.12,8.3.75,2.35,1.88,4.31,3.4,5.86,1.53,1.54,3.43,2.7,5.69,3.45,2.27.77,4.92,1.14,7.93,1.14,1.68,0,3.25-.1,4.73-.32,1.47-.21,2.77-.47,3.91-.75,1.14-.3,2.08-.6,2.82-.9.74-.3,1.18-.55,1.35-.73.17-.17.3-.35.4-.55.1-.19.18-.43.22-.7.05-.29.09-.62.12-1.01.03-.39.04-.87.04-1.43,0-.64-.01-1.16-.05-1.57-.04-.43-.12-.75-.21-.97-.1-.23-.23-.39-.39-.48-.14-.09-.34-.13-.57-.13-.38,0-.87.12-1.48.36-.61.23-1.38.51-2.3.79-.92.3-2.03.56-3.3.81-1.26.23-2.73.36-4.4.36s-3.06-.22-4.25-.65c-1.18-.43-2.14-1.06-2.9-1.88-.74-.83-1.29-1.83-1.64-3.01-.34-1.17-.51-2.48-.51-3.93h20.66c.91,0,1.62-.27,2.14-.83.52-.56.78-1.43.78-2.58h0ZM260.2,274.45h-14.3c.05-1.19.23-2.32.55-3.38.32-1.05.78-1.96,1.38-2.74.6-.77,1.34-1.39,2.24-1.84.9-.45,1.95-.68,3.17-.68,2.42,0,4.19.77,5.35,2.3,1.16,1.53,1.69,3.65,1.61,6.34h0ZM294.28,291.8c0,1.12-.07,1.96-.21,2.56-.14.6-.32,1.01-.56,1.26-.22.25-.56.45-1,.65-.44.18-.96.35-1.56.49-.6.14-1.25.25-1.95.32-.69.08-1.4.12-2.1.12-1.91,0-3.56-.25-4.95-.73-1.4-.48-2.54-1.22-3.47-2.22-.91-1.01-1.58-2.27-2.01-3.79-.43-1.52-.65-3.32-.65-5.4v-17.38h-4.06c-.48,0-.86-.3-1.1-.9-.26-.6-.39-1.58-.39-2.99,0-.73.04-1.35.1-1.86.07-.51.16-.91.29-1.21.12-.29.29-.49.47-.62.19-.13.42-.19.68-.19h4.02v-7.57c0-.25.07-.48.21-.67.14-.21.4-.38.77-.52.36-.14.86-.23,1.48-.3.62-.07,1.39-.1,2.3-.1s1.73.04,2.35.1c.61.06,1.1.16,1.45.3.36.14.61.31.77.52.16.19.22.43.22.67v7.57h7.39c.25,0,.47.07.66.19.19.13.35.34.48.62.12.3.22.7.28,1.21.07.51.09,1.13.09,1.86,0,1.4-.13,2.39-.38,2.99-.26.6-.62.9-1.1.9h-7.43v15.94c0,1.84.3,3.23.88,4.16.58.93,1.62,1.39,3.12,1.39.51,0,.96-.04,1.38-.13.4-.09.77-.18,1.08-.3s.59-.22.81-.31c.21-.09.4-.13.58-.13.16,0,.3.04.44.13.13.09.25.27.32.53.07.27.14.64.21,1.09.07.45.09,1.04.09,1.75h0ZM333.17,277.83c0,2.89-.38,5.53-1.14,7.92-.76,2.38-1.93,4.44-3.47,6.15-1.55,1.72-3.48,3.06-5.82,4s-5.06,1.4-8.18,1.4-5.64-.41-7.87-1.25c-2.24-.84-4.09-2.07-5.56-3.66-1.47-1.6-2.56-3.56-3.27-5.89-.71-2.32-1.07-4.99-1.07-7.98s.38-5.54,1.16-7.93c.77-2.39,1.93-4.44,3.48-6.16,1.55-1.72,3.48-3.03,5.8-3.97,2.33-.94,5.04-1.42,8.17-1.42s5.68.41,7.91,1.23c2.24.82,4.07,2.04,5.53,3.64,1.46,1.6,2.55,3.57,3.26,5.89.71,2.33,1.06,5.01,1.06,8.02h0ZM323.31,278.22c0-1.67-.14-3.22-.4-4.62-.27-1.41-.72-2.64-1.35-3.67-.64-1.04-1.48-1.85-2.53-2.43-1.05-.58-2.38-.88-3.97-.88-1.41,0-2.66.26-3.73.78-1.07.52-1.94,1.29-2.62,2.29-.69,1-1.2,2.21-1.55,3.61-.34,1.41-.51,3.01-.51,4.82,0,1.67.13,3.21.42,4.62.28,1.4.72,2.62,1.35,3.67.62,1.04,1.47,1.84,2.53,2.42,1.06.57,2.38.86,3.95.86,1.45,0,2.7-.27,3.78-.79,1.07-.52,1.94-1.27,2.62-2.26.68-.98,1.19-2.18,1.52-3.6.33-1.4.49-3.01.49-4.8h0ZM371.2,277.69c0,3.01-.33,5.74-.98,8.15-.65,2.43-1.58,4.48-2.83,6.18-1.25,1.7-2.79,3.01-4.64,3.92-1.86.91-3.97,1.36-6.36,1.36-.99,0-1.9-.09-2.71-.28-.83-.18-1.62-.48-2.4-.87-.77-.39-1.53-.88-2.3-1.47-.76-.58-1.54-1.26-2.36-2.05v15.97c0,.26-.06.49-.22.69-.16.21-.42.38-.78.52-.38.14-.86.25-1.47.32-.61.08-1.38.1-2.32.1s-1.71-.03-2.31-.1c-.61-.08-1.1-.18-1.47-.32-.38-.14-.64-.31-.78-.52-.16-.19-.23-.43-.23-.69v-47.39c0-.25.07-.48.19-.66.13-.19.35-.35.66-.48.31-.13.74-.22,1.26-.29.52-.06,1.17-.09,1.96-.09s1.4.03,1.92.09c.52.07.93.16,1.25.29.33.13.55.29.68.48.12.18.18.41.18.66v4c.99-1.01,1.96-1.91,2.91-2.69.96-.77,1.92-1.42,2.91-1.93,1-.52,2.01-.91,3.06-1.17,1.05-.25,2.18-.38,3.38-.38,2.48,0,4.6.49,6.35,1.47,1.75.97,3.17,2.31,4.27,4.01,1.1,1.7,1.91,3.67,2.42,5.93.51,2.26.77,4.66.77,7.23h0ZM361.22,278.36c0-1.44-.1-2.83-.31-4.15-.22-1.34-.58-2.52-1.1-3.56-.52-1.04-1.21-1.87-2.06-2.49-.84-.62-1.91-.93-3.17-.93-.64,0-1.26.09-1.88.28-.62.19-1.26.51-1.91.94-.65.43-1.31.99-2,1.68-.68.67-1.4,1.53-2.17,2.54v11.18c1.35,1.7,2.64,3.01,3.84,3.93,1.22.93,2.49,1.39,3.8,1.39s2.31-.31,3.18-.95c.87-.64,1.58-1.47,2.14-2.49.56-1.03.97-2.18,1.25-3.48.26-1.28.39-2.58.39-3.88h0ZM410.52,277.83c0,2.89-.39,5.53-1.14,7.92-.77,2.38-1.92,4.44-3.47,6.15-1.54,1.73-3.48,3.06-5.81,4-2.34.93-5.06,1.4-8.18,1.4s-5.64-.42-7.87-1.25c-2.23-.84-4.09-2.06-5.56-3.66-1.47-1.6-2.56-3.56-3.27-5.89-.71-2.32-1.06-4.99-1.06-7.98s.39-5.53,1.16-7.93c.78-2.39,1.94-4.44,3.48-6.16,1.56-1.71,3.48-3.04,5.8-3.97,2.32-.95,5.04-1.42,8.17-1.42s5.67.41,7.91,1.23c2.23.83,4.08,2.04,5.53,3.64,1.47,1.6,2.55,3.57,3.26,5.89.7,2.34,1.06,5.01,1.06,8.02h0ZM400.66,278.22c0-1.67-.13-3.22-.4-4.62-.26-1.42-.71-2.64-1.35-3.67-.64-1.04-1.48-1.86-2.53-2.43-1.05-.58-2.38-.88-3.97-.88-1.42,0-2.66.26-3.73.78-1.07.52-1.94,1.29-2.62,2.29-.69,1-1.19,2.21-1.54,3.61-.34,1.42-.51,3.01-.51,4.82,0,1.67.13,3.21.41,4.62.28,1.4.73,2.62,1.35,3.67.62,1.04,1.47,1.84,2.53,2.42,1.06.57,2.38.86,3.95.86,1.46,0,2.7-.27,3.78-.79,1.07-.52,1.94-1.27,2.62-2.26.68-.99,1.18-2.18,1.52-3.6.33-1.4.49-3.01.49-4.8h0ZM425.03,295.14c0,.26-.07.48-.22.68-.16.18-.41.35-.78.47-.38.13-.86.22-1.47.29-.61.07-1.38.1-2.32.1s-1.71-.04-2.31-.1c-.61-.06-1.1-.16-1.47-.29-.38-.12-.63-.29-.78-.47-.16-.19-.23-.42-.23-.68v-50.01c0-.26.08-.48.23-.69.14-.21.4-.38.78-.51.37-.14.86-.25,1.47-.32.6-.08,1.38-.12,2.31-.12s1.71.04,2.32.12c.61.08,1.09.18,1.47.32.36.13.62.3.78.51.16.21.22.43.22.69v50.01h0ZM440.6,295.14c0,.26-.06.48-.22.68-.15.18-.42.35-.78.47-.38.13-.86.22-1.47.29-.61.06-1.38.1-2.32.1s-1.71-.04-2.31-.1c-.61-.07-1.1-.16-1.47-.29-.37-.12-.64-.29-.78-.47-.15-.19-.23-.42-.23-.68v-33.85c0-.26.09-.47.23-.66.15-.19.41-.36.78-.49.37-.13.86-.25,1.47-.32.6-.08,1.38-.12,2.31-.12s1.71.04,2.32.12c.61.08,1.09.19,1.47.32.36.13.62.3.78.49.15.18.22.4.22.66v33.85h0ZM441.32,249.72c0,1.94-.39,3.26-1.18,4-.78.74-2.24,1.1-4.38,1.1s-3.6-.35-4.35-1.06c-.75-.71-1.13-1.99-1.13-3.84s.39-3.26,1.17-4.01c.77-.75,2.23-1.13,4.39-1.13s3.58.37,4.34,1.09c.76.73,1.14,2.01,1.14,3.86h0ZM471.4,285.56c0,1.93-.37,3.62-1.09,5.1-.72,1.46-1.74,2.7-3.05,3.69-1.32.99-2.88,1.73-4.69,2.22-1.79.49-3.75.74-5.85.74-1.27,0-2.48-.1-3.64-.28-1.15-.19-2.18-.43-3.09-.71-.92-.29-1.68-.59-2.28-.9-.61-.31-1.06-.59-1.34-.86-.28-.27-.5-.69-.65-1.26-.15-.57-.22-1.42-.22-2.53,0-.73.03-1.33.08-1.77.05-.44.12-.8.22-1.06.1-.26.24-.44.39-.53.14-.09.34-.13.57-.13.27,0,.68.16,1.23.48.54.32,1.22.66,2.04,1.04.81.37,1.75.73,2.83,1.06,1.08.33,2.3.49,3.66.49.87,0,1.64-.08,2.31-.26.67-.17,1.24-.44,1.74-.77.5-.33.88-.74,1.13-1.26.25-.5.38-1.09.38-1.74,0-.77-.24-1.42-.7-1.96-.47-.54-1.09-1.02-1.87-1.43-.77-.4-1.64-.79-2.62-1.14-.97-.35-1.97-.75-3-1.18-1.03-.43-2.03-.92-3.01-1.48-.98-.55-1.85-1.24-2.62-2.05-.77-.81-1.39-1.79-1.86-2.93-.47-1.14-.7-2.51-.7-4.1s.31-3.12.95-4.47c.64-1.36,1.54-2.52,2.74-3.49,1.18-.96,2.64-1.7,4.35-2.23,1.71-.53,3.64-.81,5.77-.81,1.06,0,2.1.08,3.1.23,1,.15,1.9.35,2.71.57.81.23,1.49.47,2.05.74.56.26.97.49,1.21.68.24.19.41.39.51.57.11.19.18.43.24.69.05.27.09.6.13.99.04.4.06.88.06,1.47,0,.69-.03,1.25-.06,1.67-.04.43-.11.78-.19,1.03-.09.26-.21.43-.35.52-.15.09-.34.13-.53.13-.23,0-.58-.14-1.07-.4-.49-.27-1.09-.55-1.82-.86-.71-.3-1.56-.59-2.51-.86-.94-.27-2.04-.39-3.24-.39-.87,0-1.61.08-2.25.26s-1.15.44-1.56.77-.72.71-.92,1.16c-.2.44-.3.92-.3,1.43,0,.78.24,1.44.73,1.97.48.53,1.1,1,1.9,1.41.79.41,1.67.78,2.69,1.14,1,.35,2.01.74,3.04,1.15,1.02.42,2.04.91,3.04,1.47,1,.56,1.89,1.24,2.69,2.05.78.8,1.42,1.78,1.9,2.91.48,1.13.73,2.47.73,4.01Z"/>
        </g>
        <g id="Layer_3" data-name="Layer 3">
          <path class="cls-2" d="M174.56,304.51c-17.86,5.84-34.98,13.29-51.41,22.22-7.98-37.11-22.64-72.14-43.38-105.27,11.01-6.25,22.71-11.08,34.98-13.82.01.29.04.59.1.88.75,4.16,5.26,6.83,10.06,5.96,4.8-.87,8.09-4.95,7.33-9.11l-.02-.12c9.57-.48,19.44.4,29.55,2.92,5.67,14.5,6.34,20.8,8.1,31.74-3.32-7.59-5.91-13.65-11-19.68-21.93-3.4-40.45.37-56.65,9.06,13.82,28.1,22.21,52.86,29.16,82.06,14.26-4.03,29.54-6.71,43.18-6.84Z"/>
        </g>
        <g id="Layer_4" data-name="Layer 4">
          <path class="cls-3" d="M67.36,220.02c23.87,29.44,39.73,63.67,50.8,100.77-17.04-42.79-45.49-81.46-77.56-106.93,11.33-7.5,23.07-13.64,35.26-18.29,1.48,3.75,5.94,6,10.65,5.14,5.27-.95,8.88-5.43,8.05-10-.06-.33-.14-.65-.25-.96,9.71-2.43,19.7-3.94,29.98-4.49,3.08,2.85,8.84,10.74,9.58,14.52-25.15,1.64-49.98,8.13-66.51,20.23Z"/>
        </g>
        <g id="Layer_5" data-name="Layer 5">
          <path class="cls-2" d="M65.42,245.54c-1.36,1.51-2.53,3.15-3.52,4.92,20.53,17.29,39.39,40.02,51.62,65.54-19.17-24.42-43.6-49.13-69.48-62.98,2.91-5.91,6.89-12.41,11.92-17.14,3.27,3.13,6.42,6.36,9.47,9.67Z"/>
        </g>
      </g>
    </g>
  </g>
</svg>